<svg width="249" height="49" viewBox="0 0 249 49" fill="none" xmlns="http://www.w3.org/2000/svg">
<path d="M51.2598 24.9924H12.2598C9.25977 23.9924 9.25977 18.9924 12.2598 17.4924C14.5451 16.3496 19.7598 16.9924 19.2598 21.9924" stroke="#EF272C" stroke-width="2"/>
<line y1="30.9924" x2="51.2599" y2="30.9924" stroke="#EF272C" stroke-width="2"/>
<path d="M98.0998 33.4C97.9131 33.4 97.8064 33.3467 97.7798 33.24C97.5664 32.84 97.3264 32.16 97.0598 31.2C96.8198 30.24 96.5531 28.9867 96.2598 27.44C96.0731 26.4 95.8731 25.36 95.6598 24.32C95.4731 23.28 95.2864 22.24 95.0998 21.2C94.7798 19.5733 94.4331 18.1867 94.0598 17.04C93.6864 15.8933 93.2864 14.9733 92.8598 14.28L91.9798 13.24C91.6864 12.8933 91.5398 12.4667 91.5398 11.96C91.5398 10.5733 91.8864 9.88 92.5798 9.88C92.6598 9.88 92.7531 9.90667 92.8598 9.96C93.7131 10.52 94.5264 12.28 95.2998 15.24C95.6998 16.92 96.2598 19.7733 96.9798 23.8C97.2998 25.5867 97.5798 27.04 97.8198 28.16C98.0598 29.28 98.2464 30.0667 98.3798 30.52L103.74 18.52C106.673 12.2 108.846 9.04 110.26 9.04C111.006 9.04 111.38 9.54667 111.38 10.56C111.38 11.0133 111.3 11.24 111.14 11.24C111.113 11.24 111.006 11.08 110.82 10.76C110.66 10.44 110.473 10.28 110.26 10.28C109.993 10.28 109.62 10.56 109.14 11.12C107.46 13.1467 105.606 16.2933 103.58 20.56C102.753 22.3467 101.98 24.1067 101.26 25.84C100.566 27.5733 99.9398 29.2667 99.3798 30.92C99.3531 31 99.3398 31.36 99.3398 32C99.3398 32.9333 98.9264 33.4 98.0998 33.4ZM109.073 16.56C108.459 16.56 108.153 16.2933 108.153 15.76C108.153 15.2533 108.433 14.88 108.993 14.64L110.353 14.04C110.459 13.9867 110.539 13.96 110.593 13.96C110.779 13.96 110.873 14.08 110.873 14.32C110.873 14.4 110.699 14.6533 110.353 15.08C110.006 15.5067 109.806 15.8267 109.753 16.04C109.646 16.3867 109.419 16.56 109.073 16.56ZM110.033 32.6C109.206 32.6 108.793 31.68 108.793 29.84C108.793 29.2 108.833 28.3067 108.913 27.16C108.993 25.96 109.033 25.0533 109.033 24.44C109.033 22.6 108.539 21.68 107.553 21.68C107.446 21.68 107.286 21.7067 107.073 21.76C106.886 21.8133 106.753 21.84 106.673 21.84C106.539 21.84 106.473 21.7867 106.473 21.68C106.473 21.4667 106.926 21.2267 107.833 20.96C108.766 20.64 109.366 20.48 109.633 20.48C110.033 20.48 110.233 21.0667 110.233 22.24C110.233 22.5333 110.206 22.92 110.153 23.4C110.126 23.88 110.086 24.4267 110.033 25.04C109.979 25.6533 109.939 26.2 109.913 26.68C109.886 27.1333 109.873 27.5067 109.873 27.8C109.873 30.2533 110.273 31.48 111.073 31.48C111.686 31.48 112.353 31.0533 113.073 30.2C113.153 30.2 113.193 30.2667 113.193 30.4C113.193 30.7467 112.766 31.2 111.913 31.76C111.086 32.32 110.459 32.6 110.033 32.6ZM116.316 33.4C115.063 33.4 114.209 32.8133 113.756 31.64C113.649 31.4 113.596 31.2 113.596 31.04C113.596 30.8533 113.689 30.76 113.876 30.76C113.983 30.76 114.063 30.8267 114.116 30.96C114.489 32.1333 115.169 32.72 116.156 32.72C117.223 32.72 117.756 32.2 117.756 31.16C117.756 30.5733 117.289 29.5733 116.356 28.16C115.423 26.7467 114.956 25.5867 114.956 24.68C114.956 23.48 115.516 22.2667 116.636 21.04C117.756 19.8133 118.903 19.2 120.076 19.2C120.956 19.2 121.396 19.6 121.396 20.4C121.396 20.6667 121.196 21.0667 120.796 21.6C120.423 22.1333 120.129 22.4 119.916 22.4C119.889 22.3733 119.876 22.3467 119.876 22.32C119.876 22.2933 119.983 22.12 120.196 21.8C120.409 21.48 120.516 21.2267 120.516 21.04C120.516 20.8533 120.383 20.76 120.116 20.76C119.263 20.76 118.369 21.1867 117.436 22.04C116.529 22.8667 116.076 23.72 116.076 24.6C116.076 25.4 116.569 26.4533 117.556 27.76C118.569 29.0933 119.076 30.16 119.076 30.96C119.076 31.68 118.796 32.2667 118.236 32.72C117.703 33.1733 117.063 33.4 116.316 33.4ZM124.034 16.56C123.42 16.56 123.114 16.2933 123.114 15.76C123.114 15.2533 123.394 14.88 123.954 14.64L125.314 14.04C125.42 13.9867 125.5 13.96 125.554 13.96C125.74 13.96 125.834 14.08 125.834 14.32C125.834 14.4 125.66 14.6533 125.314 15.08C124.967 15.5067 124.767 15.8267 124.714 16.04C124.607 16.3867 124.38 16.56 124.034 16.56ZM124.994 32.6C124.167 32.6 123.754 31.68 123.754 29.84C123.754 29.2 123.794 28.3067 123.874 27.16C123.954 25.96 123.994 25.0533 123.994 24.44C123.994 22.6 123.5 21.68 122.514 21.68C122.407 21.68 122.247 21.7067 122.034 21.76C121.847 21.8133 121.714 21.84 121.634 21.84C121.5 21.84 121.434 21.7867 121.434 21.68C121.434 21.4667 121.887 21.2267 122.794 20.96C123.727 20.64 124.327 20.48 124.594 20.48C124.994 20.48 125.194 21.0667 125.194 22.24C125.194 22.5333 125.167 22.92 125.114 23.4C125.087 23.88 125.047 24.4267 124.994 25.04C124.94 25.6533 124.9 26.2 124.874 26.68C124.847 27.1333 124.834 27.5067 124.834 27.8C124.834 30.2533 125.234 31.48 126.034 31.48C126.647 31.48 127.314 31.0533 128.034 30.2C128.114 30.2 128.154 30.2667 128.154 30.4C128.154 30.7467 127.727 31.2 126.874 31.76C126.047 32.32 125.42 32.6 124.994 32.6ZM132.517 32.88C131.53 32.88 131.037 31.5867 131.037 29C131.037 28.3067 131.077 27.2533 131.157 25.84C131.237 24.4 131.37 22.6133 131.557 20.48C129.69 20.72 128.597 20.84 128.277 20.84C128.037 20.84 127.917 20.7867 127.917 20.68C127.917 20.3867 128.144 20.12 128.597 19.88C128.97 19.6667 129.317 19.56 129.637 19.56C129.77 19.56 129.837 19.5733 129.837 19.6C129.81 19.6267 129.797 19.6533 129.797 19.68C129.797 19.7067 129.784 19.7467 129.757 19.8H129.877C130.197 19.8 130.77 19.76 131.597 19.68C131.677 19.5467 131.717 18.9867 131.717 18C131.717 15.4133 131.45 14.12 130.917 14.12C130.757 14.12 130.477 14.2 130.077 14.36C129.704 14.52 129.504 14.6 129.477 14.6L129.357 14.52C129.384 14.4933 129.41 14.4667 129.437 14.44C129.464 14.4133 129.504 14.3867 129.557 14.36L130.877 13.12C131.597 12.4533 132.024 12.0933 132.157 12.04C132.744 12.04 133.037 12.8933 133.037 14.6C133.037 15.1333 133.01 15.8133 132.957 16.64C132.904 17.44 132.824 18.3867 132.717 19.48C133.09 19.4533 133.424 19.44 133.717 19.44C134.037 19.4133 134.29 19.4 134.477 19.4C135.837 19.4 136.61 19.5733 136.797 19.92C136.69 20.08 136.57 20.16 136.437 20.16C136.277 20.16 136.024 20.1467 135.677 20.12C135.357 20.0933 135.117 20.08 134.957 20.08C134.744 20.08 134.437 20.1067 134.037 20.16C133.664 20.1867 133.21 20.2267 132.677 20.28C132.544 21.4533 132.437 22.5467 132.357 23.56C132.277 24.5467 132.237 25.4267 132.237 26.2C132.237 29.8267 132.69 31.64 133.597 31.64C134.157 31.64 134.73 31.16 135.317 30.2C135.424 30.2 135.477 30.2933 135.477 30.48C135.477 30.8533 135.077 31.3467 134.277 31.96C133.504 32.5733 132.917 32.88 132.517 32.88ZM157.789 33.52C155.549 33.52 153.362 30.8933 151.229 25.64C151.069 25.08 150.789 24.28 150.389 23.24C150.255 22.9733 150.029 22.7733 149.709 22.64C149.469 22.5067 149.349 22.2 149.349 21.72C149.349 20.5733 149.602 20 150.109 20C150.269 20 150.402 20.0533 150.509 20.16C150.615 20.4533 150.749 20.8133 150.909 21.24C151.069 21.6667 151.255 22.1733 151.469 22.76V22.68C151.469 22.5467 151.562 22.4667 151.749 22.44C152.415 22.3333 153.029 22.2267 153.589 22.12C154.149 22.0133 154.642 21.8933 155.069 21.76C156.429 21.36 157.709 20.7867 158.909 20.04C160.642 19 161.509 18 161.509 17.04C161.509 15.8933 160.642 14.8 158.909 13.76C157.229 12.6933 155.295 12 153.109 11.68C151.669 11.44 149.602 11.32 146.909 11.32C146.482 11.32 146.069 11.3467 145.669 11.4C145.295 11.4267 144.949 11.4667 144.629 11.52C144.709 10.8533 145.002 10.4267 145.509 10.24C145.642 10.1867 145.842 10.1467 146.109 10.12C146.402 10.0933 146.762 10.0667 147.189 10.04C147.482 10.0133 147.802 10 148.149 10C148.522 10 148.922 10 149.349 10H150.029C153.975 10 157.282 10.76 159.949 12.28C161.949 13.4267 162.949 14.7333 162.949 16.2C162.949 17.72 161.469 19.28 158.509 20.88C155.842 22.32 153.682 23.04 152.029 23.04C151.735 23.04 151.549 22.9467 151.469 22.76C153.762 28.6 156.082 31.52 158.429 31.52C159.975 31.52 161.109 30.36 161.829 28.04C162.309 26.4667 162.549 24.6667 162.549 22.64C162.549 21.6533 162.509 21.0667 162.429 20.88C162.482 20.8 162.535 20.76 162.589 20.76C162.775 20.76 162.935 20.96 163.069 21.36C163.229 21.76 163.309 22.08 163.309 22.32C163.309 24.6133 162.909 26.88 162.109 29.12C161.069 32.0533 159.629 33.52 157.789 33.52ZM147.229 33.8C145.815 33.8 145.189 32.4667 145.349 29.8L145.389 29.2C145.469 27.8667 145.615 26.4533 145.829 24.96C146.069 23.4667 146.362 21.8933 146.709 20.24C147.429 16.9067 147.789 14.64 147.789 13.44C147.789 13.3067 147.789 13.1733 147.789 13.04C147.789 12.9067 147.775 12.7733 147.749 12.64C148.149 11.9467 148.522 11.6 148.869 11.6C149.162 11.6 149.309 11.9467 149.309 12.64V12.88C149.309 13.2267 149.229 13.84 149.069 14.72C148.935 15.5733 148.722 16.6933 148.429 18.08C147.895 20.56 147.495 22.6667 147.229 24.4C146.962 26.1333 146.829 27.5067 146.829 28.52C146.829 30.76 147.295 32.2667 148.229 33.04C148.042 33.5467 147.709 33.8 147.229 33.8ZM167.954 32.44C166.114 32.44 165.194 31.0533 165.194 28.28C165.194 27.8267 165.207 27.3867 165.234 26.96C165.287 26.5067 165.367 26.0667 165.474 25.64C165.154 25.4267 164.994 25.2533 164.994 25.12C164.994 24.88 165.274 24.6667 165.834 24.48C166.1 23.68 166.487 22.7733 166.994 21.76C167.714 20.3733 168.26 19.68 168.634 19.68C169.06 19.68 169.38 19.8667 169.594 20.24C169.754 19.8667 169.94 19.68 170.154 19.68C170.9 19.68 171.274 20.1333 171.274 21.04C171.274 21.7333 171.14 22.3467 170.874 22.88C171.06 23.0933 171.154 23.2933 171.154 23.48C171.154 23.5333 171.114 23.5867 171.034 23.64L168.794 24.36C168.367 24.4933 167.98 24.6667 167.634 24.88C167.314 25.0933 167.02 25.32 166.754 25.56C166.46 26.44 166.314 27.3867 166.314 28.4C166.314 30.64 167.007 31.76 168.394 31.76C170.234 31.76 171.967 30.2667 173.594 27.28C173.674 27.1467 173.74 27.08 173.794 27.08C173.874 27.08 173.914 27.16 173.914 27.32C173.914 27.4533 173.874 27.6 173.794 27.76C173.154 29.04 172.38 30.0933 171.474 30.92C170.327 31.9333 169.154 32.44 167.954 32.44ZM167.234 24.16C167.5 24.08 167.807 23.9867 168.154 23.88C168.527 23.7467 168.927 23.5867 169.354 23.4C169.487 23.2933 169.66 22.96 169.874 22.4C170.06 21.92 170.154 21.5333 170.154 21.24C170.154 20.8933 170.02 20.72 169.754 20.72C169.46 20.72 168.98 21.2133 168.314 22.2C167.62 23.16 167.26 23.8133 167.234 24.16ZM175.808 33.4C174.555 33.4 173.702 32.8133 173.248 31.64C173.142 31.4 173.088 31.2 173.088 31.04C173.088 30.8533 173.182 30.76 173.368 30.76C173.475 30.76 173.555 30.8267 173.608 30.96C173.982 32.1333 174.662 32.72 175.648 32.72C176.715 32.72 177.248 32.2 177.248 31.16C177.248 30.5733 176.782 29.5733 175.848 28.16C174.915 26.7467 174.448 25.5867 174.448 24.68C174.448 23.48 175.008 22.2667 176.128 21.04C177.248 19.8133 178.395 19.2 179.568 19.2C180.448 19.2 180.888 19.6 180.888 20.4C180.888 20.6667 180.688 21.0667 180.288 21.6C179.915 22.1333 179.622 22.4 179.408 22.4C179.382 22.3733 179.368 22.3467 179.368 22.32C179.368 22.2933 179.475 22.12 179.688 21.8C179.902 21.48 180.008 21.2267 180.008 21.04C180.008 20.8533 179.875 20.76 179.608 20.76C178.755 20.76 177.862 21.1867 176.928 22.04C176.022 22.8667 175.568 23.72 175.568 24.6C175.568 25.4 176.062 26.4533 177.048 27.76C178.062 29.0933 178.568 30.16 178.568 30.96C178.568 31.68 178.288 32.2667 177.728 32.72C177.195 33.1733 176.555 33.4 175.808 33.4ZM185.486 32.88C184.499 32.88 184.006 31.5867 184.006 29C184.006 28.3067 184.046 27.2533 184.126 25.84C184.206 24.4 184.339 22.6133 184.526 20.48C182.659 20.72 181.566 20.84 181.246 20.84C181.006 20.84 180.886 20.7867 180.886 20.68C180.886 20.3867 181.112 20.12 181.566 19.88C181.939 19.6667 182.286 19.56 182.606 19.56C182.739 19.56 182.806 19.5733 182.806 19.6C182.779 19.6267 182.766 19.6533 182.766 19.68C182.766 19.7067 182.752 19.7467 182.726 19.8H182.846C183.166 19.8 183.739 19.76 184.566 19.68C184.646 19.5467 184.686 18.9867 184.686 18C184.686 15.4133 184.419 14.12 183.886 14.12C183.726 14.12 183.446 14.2 183.046 14.36C182.672 14.52 182.472 14.6 182.446 14.6L182.326 14.52C182.352 14.4933 182.379 14.4667 182.406 14.44C182.432 14.4133 182.472 14.3867 182.526 14.36L183.846 13.12C184.566 12.4533 184.992 12.0933 185.126 12.04C185.712 12.04 186.006 12.8933 186.006 14.6C186.006 15.1333 185.979 15.8133 185.926 16.64C185.872 17.44 185.792 18.3867 185.686 19.48C186.059 19.4533 186.392 19.44 186.686 19.44C187.006 19.4133 187.259 19.4 187.446 19.4C188.806 19.4 189.579 19.5733 189.766 19.92C189.659 20.08 189.539 20.16 189.406 20.16C189.246 20.16 188.992 20.1467 188.646 20.12C188.326 20.0933 188.086 20.08 187.926 20.08C187.712 20.08 187.406 20.1067 187.006 20.16C186.632 20.1867 186.179 20.2267 185.646 20.28C185.512 21.4533 185.406 22.5467 185.326 23.56C185.246 24.5467 185.206 25.4267 185.206 26.2C185.206 29.8267 185.659 31.64 186.566 31.64C187.126 31.64 187.699 31.16 188.286 30.2C188.392 30.2 188.446 30.2933 188.446 30.48C188.446 30.8533 188.046 31.3467 187.246 31.96C186.472 32.5733 185.886 32.88 185.486 32.88ZM190.054 31.24C189.28 31.24 188.894 30.76 188.894 29.8C188.894 28.5467 189.547 26.9867 190.854 25.12C191.414 24.2933 191.987 23.56 192.574 22.92C193.16 22.28 193.747 21.7067 194.334 21.2C195.107 20.56 195.814 20.24 196.454 20.24C196.854 20.24 197.187 20.4133 197.454 20.76C197.72 21.08 197.854 21.44 197.854 21.84C197.854 22.0267 197.8 22.12 197.694 22.12C197.694 22.12 197.6 22.0267 197.414 21.84C197.227 21.6533 196.92 21.56 196.494 21.56C195.88 21.56 195.347 21.7067 194.894 22C193.72 22.8267 192.64 23.88 191.654 25.16C190.507 26.6533 189.934 28 189.934 29.2C189.934 29.8133 190.147 30.12 190.574 30.12C191.267 30.12 192.36 29.0933 193.854 27.04C194.494 26.1333 195.014 25.3333 195.414 24.64C195.84 23.92 196.147 23.3067 196.334 22.8C196.52 22.6133 196.734 22.52 196.974 22.52C197.107 22.52 197.187 22.5733 197.214 22.68C197.027 23.0267 196.934 23.6533 196.934 24.56C196.934 25.7067 197.067 26.7333 197.334 27.64C197.734 29.0533 198.307 29.76 199.054 29.76C199.534 29.76 200.04 29.3467 200.574 28.52L201.414 27.24C201.44 27.2667 201.454 27.2933 201.454 27.32C201.454 27.7467 201.054 28.4667 200.254 29.48C199.454 30.4667 198.84 30.96 198.414 30.96C197.72 30.96 197.08 30.1867 196.494 28.64C196.04 27.36 195.814 26.28 195.814 25.4C193.2 29.2933 191.28 31.24 190.054 31.24ZM201.267 31.84C200.761 31.84 200.507 31.2133 200.507 29.96C200.507 29.4 200.574 28.6667 200.707 27.76C200.841 26.8267 201.041 25.72 201.307 24.44C201.201 24.2 201.147 23.8933 201.147 23.52C201.147 22.16 201.734 21.2933 202.907 20.92C203.014 20.9467 203.067 21.08 203.067 21.32C203.067 21.5067 202.854 22.36 202.427 23.88C201.947 25.5867 201.707 27.16 201.707 28.6C201.707 29.72 201.921 30.28 202.347 30.28C203.067 30.28 204.067 29.0267 205.347 26.52C206.441 24.3867 207.121 22.7467 207.387 21.6C207.547 20.9867 207.934 20.68 208.547 20.68C208.867 20.68 209.027 20.8 209.027 21.04C209.027 21.1733 208.934 21.4 208.747 21.72C208.587 22.04 208.494 22.2533 208.467 22.36C208.067 24.1467 207.867 25.8667 207.867 27.52C207.867 29.44 208.307 30.4 209.187 30.4C209.667 30.4 210.267 29.88 210.987 28.84C211.707 27.7733 212.081 27.24 212.107 27.24C212.214 27.24 212.267 27.3067 212.267 27.44C212.267 27.8133 211.721 28.6267 210.627 29.88C209.561 31.08 208.827 31.68 208.427 31.68C207.307 31.68 206.747 30.4933 206.747 28.12C206.747 27.8267 206.774 27.3867 206.827 26.8C206.881 26.1867 206.961 25.4267 207.067 24.52C206.747 25.1333 206.361 25.8 205.907 26.52C205.481 27.2133 205.001 27.9467 204.467 28.72C203.001 30.8 201.934 31.84 201.267 31.84ZM211.056 33.2C211.003 33.1467 210.976 33.1067 210.976 33.08C211.003 32.8933 211.043 32.56 211.096 32.08C211.176 31.6 211.269 30.9467 211.376 30.12C211.589 28.52 211.749 27.12 211.856 25.92C211.963 24.72 212.016 23.72 212.016 22.92C212.016 22.0933 211.949 21.4533 211.816 21C211.709 20.8933 211.496 20.84 211.176 20.84C211.016 20.84 210.776 20.88 210.456 20.96C210.136 21.04 209.909 21.08 209.776 21.08C209.643 21.08 209.576 21.04 209.576 20.96C209.576 20.88 209.923 20.6533 210.616 20.28C212.056 19.5867 212.723 19.24 212.616 19.24C213.123 19.24 213.376 20 213.376 21.52C213.376 22.1867 213.256 23.2 213.016 24.56C212.909 25.2267 212.829 25.8133 212.776 26.32C212.723 26.8 212.696 27.2133 212.696 27.56V27.68C214.269 25.04 215.869 22.9067 217.496 21.28C218.109 20.8 218.683 20.56 219.216 20.56C219.296 20.56 219.336 20.5867 219.336 20.64C219.069 21.1733 218.856 21.6 218.696 21.92C218.563 22.24 218.469 22.4667 218.416 22.6C218.203 23.1333 218.029 23.8667 217.896 24.8C217.869 25.1467 217.789 25.32 217.656 25.32C217.203 25.32 216.976 24.68 216.976 23.4C216.976 23.2933 216.976 23.1867 216.976 23.08C216.976 22.9733 216.989 22.8667 217.016 22.76C216.349 23.4 215.736 24.08 215.176 24.8C214.643 25.52 214.149 26.28 213.696 27.08C212.603 29.0267 212.109 30.7333 212.216 32.2C212.083 32.36 211.909 32.52 211.696 32.68C211.509 32.84 211.296 33.0133 211.056 33.2ZM219.702 31.24C218.929 31.24 218.542 30.76 218.542 29.8C218.542 28.5467 219.195 26.9867 220.502 25.12C221.062 24.2933 221.635 23.56 222.222 22.92C222.809 22.28 223.395 21.7067 223.982 21.2C224.755 20.56 225.462 20.24 226.102 20.24C226.502 20.24 226.835 20.4133 227.102 20.76C227.369 21.08 227.502 21.44 227.502 21.84C227.502 22.0267 227.449 22.12 227.342 22.12C227.342 22.12 227.249 22.0267 227.062 21.84C226.875 21.6533 226.569 21.56 226.142 21.56C225.529 21.56 224.995 21.7067 224.542 22C223.369 22.8267 222.289 23.88 221.302 25.16C220.155 26.6533 219.582 28 219.582 29.2C219.582 29.8133 219.795 30.12 220.222 30.12C220.915 30.12 222.009 29.0933 223.502 27.04C224.142 26.1333 224.662 25.3333 225.062 24.64C225.489 23.92 225.795 23.3067 225.982 22.8C226.169 22.6133 226.382 22.52 226.622 22.52C226.755 22.52 226.835 22.5733 226.862 22.68C226.675 23.0267 226.582 23.6533 226.582 24.56C226.582 25.7067 226.715 26.7333 226.982 27.64C227.382 29.0533 227.955 29.76 228.702 29.76C229.182 29.76 229.689 29.3467 230.222 28.52L231.062 27.24C231.089 27.2667 231.102 27.2933 231.102 27.32C231.102 27.7467 230.702 28.4667 229.902 29.48C229.102 30.4667 228.489 30.96 228.062 30.96C227.369 30.96 226.729 30.1867 226.142 28.64C225.689 27.36 225.462 26.28 225.462 25.4C222.849 29.2933 220.929 31.24 219.702 31.24ZM230.236 33.2C230.182 33.1467 230.156 33.1067 230.156 33.08C230.182 32.8933 230.222 32.56 230.276 32.08C230.356 31.6 230.449 30.9467 230.556 30.12C230.769 28.52 230.929 27.12 231.036 25.92C231.142 24.72 231.196 23.72 231.196 22.92C231.196 22.0933 231.129 21.4533 230.996 21C230.889 20.8933 230.676 20.84 230.356 20.84C230.196 20.84 229.956 20.88 229.636 20.96C229.316 21.04 229.089 21.08 228.956 21.08C228.822 21.08 228.756 21.04 228.756 20.96C228.756 20.8533 229.129 20.64 229.876 20.32C231.156 19.6267 231.796 19.2667 231.796 19.24C232.302 19.24 232.556 20 232.556 21.52C232.556 22.1867 232.436 23.2 232.196 24.56C232.089 25.2267 232.009 25.8133 231.956 26.32C231.902 26.8 231.876 27.2133 231.876 27.56V27.68C232.116 27.2533 232.422 26.76 232.796 26.2C233.196 25.6133 233.649 24.9733 234.156 24.28C235.249 22.84 236.089 21.84 236.676 21.28C236.782 21.1733 237.049 21.0267 237.476 20.84C237.929 20.6533 238.236 20.56 238.396 20.56C238.476 20.56 238.516 20.5867 238.516 20.64C237.876 21.8667 237.476 22.7867 237.316 23.4C237.102 24.2 236.996 25.2267 236.996 26.48C236.996 28.6667 237.462 29.76 238.396 29.76C238.716 29.76 239.089 29.5067 239.516 29C239.569 28.8933 239.649 28.7867 239.756 28.68C239.889 28.5467 240.022 28.3867 240.156 28.2L240.196 28.36C240.196 28.6533 239.889 29.1867 239.276 29.96C238.689 30.7067 238.222 31.08 237.876 31.08C236.569 31.08 235.916 29.6933 235.916 26.92C235.916 26.1467 235.929 25.4133 235.956 24.72C236.009 24.0267 236.089 23.3733 236.196 22.76C235.529 23.4 234.916 24.08 234.356 24.8C233.822 25.52 233.329 26.28 232.876 27.08C231.782 29.0267 231.289 30.7333 231.396 32.2C231.262 32.36 231.089 32.52 230.876 32.68C230.689 32.84 230.476 33.0133 230.236 33.2ZM244.665 32.88C243.679 32.88 243.185 31.5867 243.185 29C243.185 28.3067 243.225 27.2533 243.305 25.84C243.385 24.4 243.519 22.6133 243.705 20.48C241.839 20.72 240.745 20.84 240.425 20.84C240.185 20.84 240.065 20.7867 240.065 20.68C240.065 20.3867 240.292 20.12 240.745 19.88C241.119 19.6667 241.465 19.56 241.785 19.56C241.919 19.56 241.985 19.5733 241.985 19.6C241.959 19.6267 241.945 19.6533 241.945 19.68C241.945 19.7067 241.932 19.7467 241.905 19.8H242.025C242.345 19.8 242.919 19.76 243.745 19.68C243.825 19.5467 243.865 18.9867 243.865 18C243.865 15.4133 243.599 14.12 243.065 14.12C242.905 14.12 242.625 14.2 242.225 14.36C241.852 14.52 241.652 14.6 241.625 14.6L241.505 14.52C241.532 14.4933 241.559 14.4667 241.585 14.44C241.612 14.4133 241.652 14.3867 241.705 14.36L243.025 13.12C243.745 12.4533 244.172 12.0933 244.305 12.04C244.892 12.04 245.185 12.8933 245.185 14.6C245.185 15.1333 245.159 15.8133 245.105 16.64C245.052 17.44 244.972 18.3867 244.865 19.48C245.239 19.4533 245.572 19.44 245.865 19.44C246.185 19.4133 246.439 19.4 246.625 19.4C247.985 19.4 248.759 19.5733 248.945 19.92C248.839 20.08 248.719 20.16 248.585 20.16C248.425 20.16 248.172 20.1467 247.825 20.12C247.505 20.0933 247.265 20.08 247.105 20.08C246.892 20.08 246.585 20.1067 246.185 20.16C245.812 20.1867 245.359 20.2267 244.825 20.28C244.692 21.4533 244.585 22.5467 244.505 23.56C244.425 24.5467 244.385 25.4267 244.385 26.2C244.385 29.8267 244.839 31.64 245.745 31.64C246.305 31.64 246.879 31.16 247.465 30.2C247.572 30.2 247.625 30.2933 247.625 30.48C247.625 30.8533 247.225 31.3467 246.425 31.96C245.652 32.5733 245.065 32.88 244.665 32.88Z" fill="white"/>
</svg>
