<svg width="15" height="16" viewBox="0 0 15 16" fill="none" xmlns="http://www.w3.org/2000/svg">
<path d="M6.37444 0.5C2.85967 0.5 0 3.35881 0 6.87253C0 10.3864 2.85967 13.2451 6.37444 13.2451C9.88941 13.2451 12.7489 10.3864 12.7489 6.87253C12.7489 3.35881 9.88941 0.5 6.37444 0.5ZM6.37444 12.0686C3.50849 12.0686 1.17682 9.73764 1.17682 6.87256C1.17682 4.00747 3.50849 1.67647 6.37444 1.67647C9.24038 1.67647 11.5721 4.00744 11.5721 6.87253C11.5721 9.73761 9.24038 12.0686 6.37444 12.0686Z" fill="white"/>
<path d="M14.8277 14.4959L11.4541 11.1233C11.2243 10.8935 10.852 10.8935 10.6221 11.1233C10.3922 11.3529 10.3922 11.7255 10.6221 11.9551L13.9957 15.3277C14.1106 15.4425 14.2611 15.5 14.4117 15.5C14.5621 15.5 14.7128 15.4425 14.8277 15.3277C15.0576 15.0981 15.0576 14.7255 14.8277 14.4959Z" fill="white"/>
</svg>
